# xmcd
#
# Track frame offsets:
#	150
#	16055
#	29840
#	45116
#	58699
#	69898
#	80475
#	94085
#	106755
#	118513
#
# Disc length: 1717 seconds
#
# Revision: 1
# Processed by: cddbd v1.5.1PL0 Copyright (c) Steve Scherf et al.
# Submitted via: audiograbber 1.83.01
#
DISCID=7006b30a
DTITLE=Various Artist - Country Folk
DYEAR=1900
DGENRE=Country
TTITLE0=Touch the Hand
TTITLE1=Thak God for the Radio
TTITLE2=Shine, Shine, Shine
TTITLE3=Hearts Aren't Made to Break
TTITLE4=San Antonio Rose
TTITLE5=Lovesick Blues
TTITLE6=After All the Good is Gone
TTITLE7=If We Make It Through December
TTITLE8=If You Leave Me I'll Cry
TTITLE9=I Had a Lovely Time
EXTD=
EXTT0=
EXTT1=
EXTT2=
EXTT3=
EXTT4=
EXTT5=
EXTT6=
EXTT7=
EXTT8=
EXTT9=
PLAYORDER=
